G04*
G04 #@! TF.GenerationSoftware,Altium Limited,Altium Designer,18.0.11 (651)*
G04*
G04 Layer_Physical_Order=2*
G04 Layer_Color=16711680*
%FSLAX42Y42*%
%MOMM*%
G71*
G01*
G75*
%ADD20C,0.20*%
%ADD22R,1.20X2.50*%
%ADD23O,1.20X2.50*%
%ADD24C,1.30*%
%ADD25O,2.50X1.75*%
%ADD26C,0.80*%
%ADD27C,3.00*%
G36*
X6502Y0D02*
X0D01*
Y6502D01*
X6502D01*
Y0D01*
D02*
G37*
%LPC*%
G36*
X6200Y6366D02*
X6168Y6363D01*
X6137Y6353D01*
X6108Y6338D01*
X6083Y6317D01*
X6062Y6292D01*
X6047Y6263D01*
X6037Y6232D01*
X6034Y6200D01*
X6037Y6168D01*
X6047Y6137D01*
X6062Y6108D01*
X6083Y6083D01*
X6108Y6062D01*
X6137Y6047D01*
X6168Y6037D01*
X6200Y6034D01*
X6232Y6037D01*
X6263Y6047D01*
X6292Y6062D01*
X6317Y6083D01*
X6338Y6108D01*
X6353Y6137D01*
X6363Y6168D01*
X6366Y6200D01*
X6363Y6232D01*
X6353Y6263D01*
X6338Y6292D01*
X6317Y6317D01*
X6292Y6338D01*
X6263Y6353D01*
X6232Y6363D01*
X6200Y6366D01*
D02*
G37*
G36*
X300D02*
X268Y6363D01*
X237Y6353D01*
X208Y6338D01*
X183Y6317D01*
X162Y6292D01*
X147Y6263D01*
X137Y6232D01*
X134Y6200D01*
X137Y6168D01*
X147Y6137D01*
X162Y6108D01*
X183Y6083D01*
X208Y6062D01*
X237Y6047D01*
X268Y6037D01*
X300Y6034D01*
X332Y6037D01*
X363Y6047D01*
X392Y6062D01*
X417Y6083D01*
X438Y6108D01*
X453Y6137D01*
X463Y6168D01*
X466Y6200D01*
X463Y6232D01*
X453Y6263D01*
X438Y6292D01*
X417Y6317D01*
X392Y6338D01*
X363Y6353D01*
X332Y6363D01*
X300Y6366D01*
D02*
G37*
G36*
X4318Y4941D02*
X4298Y4939D01*
X4280Y4931D01*
X4265Y4919D01*
X4252Y4903D01*
X4245Y4885D01*
X4242Y4866D01*
Y4736D01*
X4245Y4716D01*
X4252Y4698D01*
X4265Y4682D01*
X4280Y4670D01*
X4298Y4663D01*
X4318Y4660D01*
X4338Y4663D01*
X4356Y4670D01*
X4371Y4682D01*
X4384Y4698D01*
X4391Y4716D01*
X4394Y4736D01*
Y4866D01*
X4391Y4885D01*
X4384Y4903D01*
X4371Y4919D01*
X4356Y4931D01*
X4338Y4939D01*
X4318Y4941D01*
D02*
G37*
G36*
X4064D02*
X4044Y4939D01*
X4026Y4931D01*
X4011Y4919D01*
X3998Y4903D01*
X3991Y4885D01*
X3988Y4866D01*
Y4736D01*
X3991Y4716D01*
X3998Y4698D01*
X4011Y4682D01*
X4026Y4670D01*
X4044Y4663D01*
X4064Y4660D01*
X4084Y4663D01*
X4102Y4670D01*
X4117Y4682D01*
X4130Y4698D01*
X4137Y4716D01*
X4140Y4736D01*
Y4866D01*
X4137Y4885D01*
X4130Y4903D01*
X4117Y4919D01*
X4102Y4931D01*
X4084Y4939D01*
X4064Y4941D01*
D02*
G37*
G36*
X3810D02*
X3790Y4939D01*
X3772Y4931D01*
X3757Y4919D01*
X3744Y4903D01*
X3737Y4885D01*
X3734Y4866D01*
Y4736D01*
X3737Y4716D01*
X3744Y4698D01*
X3757Y4682D01*
X3772Y4670D01*
X3790Y4663D01*
X3810Y4660D01*
X3830Y4663D01*
X3848Y4670D01*
X3863Y4682D01*
X3876Y4698D01*
X3883Y4716D01*
X3886Y4736D01*
Y4866D01*
X3883Y4885D01*
X3876Y4903D01*
X3863Y4919D01*
X3848Y4931D01*
X3830Y4939D01*
X3810Y4941D01*
D02*
G37*
G36*
X3556D02*
X3536Y4939D01*
X3518Y4931D01*
X3503Y4919D01*
X3490Y4903D01*
X3483Y4885D01*
X3480Y4866D01*
Y4736D01*
X3483Y4716D01*
X3490Y4698D01*
X3503Y4682D01*
X3518Y4670D01*
X3536Y4663D01*
X3556Y4660D01*
X3576Y4663D01*
X3594Y4670D01*
X3609Y4682D01*
X3622Y4698D01*
X3629Y4716D01*
X3632Y4736D01*
Y4866D01*
X3629Y4885D01*
X3622Y4903D01*
X3609Y4919D01*
X3594Y4931D01*
X3576Y4939D01*
X3556Y4941D01*
D02*
G37*
G36*
X3302D02*
X3282Y4939D01*
X3264Y4931D01*
X3249Y4919D01*
X3236Y4903D01*
X3229Y4885D01*
X3226Y4866D01*
Y4736D01*
X3229Y4716D01*
X3236Y4698D01*
X3249Y4682D01*
X3264Y4670D01*
X3282Y4663D01*
X3302Y4660D01*
X3322Y4663D01*
X3340Y4670D01*
X3355Y4682D01*
X3368Y4698D01*
X3375Y4716D01*
X3378Y4736D01*
Y4866D01*
X3375Y4885D01*
X3368Y4903D01*
X3355Y4919D01*
X3340Y4931D01*
X3322Y4939D01*
X3302Y4941D01*
D02*
G37*
G36*
X3048D02*
X3028Y4939D01*
X3010Y4931D01*
X2995Y4919D01*
X2982Y4903D01*
X2975Y4885D01*
X2972Y4866D01*
Y4736D01*
X2975Y4716D01*
X2982Y4698D01*
X2995Y4682D01*
X3010Y4670D01*
X3028Y4663D01*
X3048Y4660D01*
X3068Y4663D01*
X3086Y4670D01*
X3101Y4682D01*
X3114Y4698D01*
X3121Y4716D01*
X3124Y4736D01*
Y4866D01*
X3121Y4885D01*
X3114Y4903D01*
X3101Y4919D01*
X3086Y4931D01*
X3068Y4939D01*
X3048Y4941D01*
D02*
G37*
G36*
X2794D02*
X2774Y4939D01*
X2756Y4931D01*
X2741Y4919D01*
X2728Y4903D01*
X2721Y4885D01*
X2718Y4866D01*
Y4736D01*
X2721Y4716D01*
X2728Y4698D01*
X2741Y4682D01*
X2756Y4670D01*
X2774Y4663D01*
X2794Y4660D01*
X2814Y4663D01*
X2832Y4670D01*
X2847Y4682D01*
X2860Y4698D01*
X2867Y4716D01*
X2870Y4736D01*
Y4866D01*
X2867Y4885D01*
X2860Y4903D01*
X2847Y4919D01*
X2832Y4931D01*
X2814Y4939D01*
X2794Y4941D01*
D02*
G37*
G36*
X4963Y4247D02*
X4942Y4243D01*
X4924Y4231D01*
X4914Y4216D01*
X3305D01*
X3295Y4215D01*
X3287Y4209D01*
X3284Y4206D01*
X3278Y4198D01*
X3277Y4188D01*
Y4174D01*
X3264Y4169D01*
X3249Y4157D01*
X3236Y4141D01*
X3229Y4123D01*
X3226Y4104D01*
Y3974D01*
X3229Y3954D01*
X3236Y3936D01*
X3249Y3920D01*
X3264Y3908D01*
X3282Y3901D01*
X3302Y3898D01*
X3322Y3901D01*
X3340Y3908D01*
X3355Y3920D01*
X3368Y3936D01*
X3375Y3954D01*
X3378Y3974D01*
Y4104D01*
X3375Y4123D01*
X3368Y4141D01*
X3359Y4153D01*
X3364Y4166D01*
X3494D01*
X3499Y4153D01*
X3490Y4141D01*
X3483Y4123D01*
X3480Y4104D01*
Y3974D01*
X3483Y3954D01*
X3490Y3936D01*
X3503Y3920D01*
X3518Y3908D01*
X3536Y3901D01*
X3556Y3898D01*
X3576Y3901D01*
X3594Y3908D01*
X3609Y3920D01*
X3622Y3936D01*
X3629Y3954D01*
X3632Y3974D01*
Y4104D01*
X3629Y4123D01*
X3622Y4141D01*
X3613Y4153D01*
X3618Y4166D01*
X3748D01*
X3753Y4153D01*
X3744Y4141D01*
X3737Y4123D01*
X3734Y4104D01*
Y3974D01*
X3737Y3954D01*
X3744Y3936D01*
X3757Y3920D01*
X3772Y3908D01*
X3790Y3901D01*
X3810Y3898D01*
X3830Y3901D01*
X3848Y3908D01*
X3863Y3920D01*
X3876Y3936D01*
X3883Y3954D01*
X3886Y3974D01*
Y4104D01*
X3883Y4123D01*
X3876Y4141D01*
X3867Y4153D01*
X3872Y4166D01*
X3988D01*
X3994Y4153D01*
X3989Y4147D01*
X3981Y4126D01*
X3978Y4104D01*
Y4051D01*
X4064D01*
X4150D01*
Y4104D01*
X4147Y4126D01*
X4139Y4147D01*
X4134Y4153D01*
X4140Y4166D01*
X4242D01*
X4248Y4153D01*
X4243Y4147D01*
X4235Y4126D01*
X4232Y4104D01*
Y4051D01*
X4318D01*
X4404D01*
Y4104D01*
X4401Y4126D01*
X4393Y4147D01*
X4388Y4153D01*
X4394Y4166D01*
X4914D01*
X4924Y4151D01*
X4942Y4139D01*
X4963Y4135D01*
X4985Y4139D01*
X5003Y4151D01*
X5015Y4170D01*
X5019Y4191D01*
X5015Y4212D01*
X5003Y4231D01*
X4985Y4243D01*
X4963Y4247D01*
D02*
G37*
G36*
X4940Y4399D02*
X4919Y4395D01*
X4901Y4383D01*
X4888Y4365D01*
X4884Y4343D01*
X4888Y4322D01*
X4901Y4304D01*
X4919Y4292D01*
X4940Y4287D01*
X4962Y4292D01*
X4980Y4304D01*
X4989Y4318D01*
X6022D01*
X6285Y4055D01*
X6281Y4039D01*
X6285Y4017D01*
X6298Y3999D01*
X6316Y3987D01*
X6337Y3983D01*
X6359Y3987D01*
X6377Y3999D01*
X6389Y4017D01*
X6393Y4039D01*
X6389Y4060D01*
X6377Y4078D01*
X6359Y4090D01*
X6337Y4095D01*
X6321Y4091D01*
X6051Y4361D01*
X6042Y4367D01*
X6033Y4369D01*
X4989D01*
X4980Y4383D01*
X4962Y4395D01*
X4940Y4399D01*
D02*
G37*
G36*
X2869Y4179D02*
X2719D01*
Y3899D01*
X2869D01*
Y4179D01*
D02*
G37*
G36*
X3048Y4179D02*
X3028Y4177D01*
X3010Y4169D01*
X2995Y4157D01*
X2982Y4141D01*
X2975Y4123D01*
X2972Y4104D01*
Y3974D01*
X2975Y3954D01*
X2982Y3936D01*
X2995Y3920D01*
X3010Y3908D01*
X3028Y3901D01*
X3048Y3898D01*
X3068Y3901D01*
X3086Y3908D01*
X3101Y3920D01*
X3114Y3936D01*
X3121Y3954D01*
X3124Y3974D01*
Y4104D01*
X3121Y4123D01*
X3114Y4141D01*
X3101Y4157D01*
X3086Y4169D01*
X3068Y4177D01*
X3048Y4179D01*
D02*
G37*
G36*
X4404Y4026D02*
X4331D01*
Y3889D01*
X4340Y3890D01*
X4361Y3899D01*
X4379Y3913D01*
X4393Y3931D01*
X4401Y3951D01*
X4404Y3974D01*
Y4026D01*
D02*
G37*
G36*
X4150D02*
X4077D01*
Y3889D01*
X4086Y3890D01*
X4107Y3899D01*
X4125Y3913D01*
X4139Y3931D01*
X4147Y3951D01*
X4150Y3974D01*
Y4026D01*
D02*
G37*
G36*
X4305D02*
X4232D01*
Y3974D01*
X4235Y3951D01*
X4243Y3931D01*
X4257Y3913D01*
X4275Y3899D01*
X4296Y3890D01*
X4305Y3889D01*
Y4026D01*
D02*
G37*
G36*
X4051D02*
X3978D01*
Y3974D01*
X3981Y3951D01*
X3989Y3931D01*
X4003Y3913D01*
X4021Y3899D01*
X4042Y3890D01*
X4051Y3889D01*
Y4026D01*
D02*
G37*
G36*
X2073Y4204D02*
X2051Y4200D01*
X2033Y4187D01*
X2021Y4169D01*
X2017Y4148D01*
X2021Y4126D01*
X2033Y4108D01*
X2051Y4096D01*
X2073Y4092D01*
X2089Y4095D01*
X2679Y3505D01*
X2688Y3499D01*
X2697Y3497D01*
X3258D01*
X3267Y3483D01*
X3286Y3471D01*
X3307Y3467D01*
X3329Y3471D01*
X3347Y3483D01*
X3359Y3502D01*
X3363Y3523D01*
X3359Y3544D01*
X3347Y3563D01*
X3329Y3575D01*
X3307Y3579D01*
X3286Y3575D01*
X3267Y3563D01*
X3258Y3548D01*
X2708D01*
X2125Y4131D01*
X2129Y4148D01*
X2124Y4169D01*
X2112Y4187D01*
X2094Y4200D01*
X2073Y4204D01*
D02*
G37*
G36*
X4897Y4029D02*
X4876Y4024D01*
X4857Y4012D01*
X4845Y3994D01*
X4841Y3973D01*
X4845Y3951D01*
X4857Y3933D01*
X4872Y3923D01*
Y3009D01*
X4810Y2948D01*
X4542D01*
X4537Y2960D01*
X4548Y2976D01*
X4552Y2997D01*
X4548Y3019D01*
X4535Y3037D01*
X4517Y3049D01*
X4496Y3053D01*
X4474Y3049D01*
X4456Y3037D01*
X4444Y3019D01*
X4440Y2997D01*
X4235D01*
X4053Y3179D01*
Y3326D01*
X4065Y3344D01*
X4069Y3365D01*
X4065Y3387D01*
X4053Y3405D01*
X4035Y3417D01*
X4013Y3422D01*
X3992Y3417D01*
X3974Y3405D01*
X3961Y3387D01*
X3957Y3365D01*
X3961Y3344D01*
X3974Y3326D01*
X3992Y3314D01*
X4002Y3312D01*
Y3274D01*
X3991Y3268D01*
X3984Y3273D01*
X3962Y3277D01*
X3941Y3273D01*
X3923Y3261D01*
X3911Y3242D01*
X3906Y3221D01*
X3911Y3199D01*
X3923Y3181D01*
X3937Y3172D01*
Y3113D01*
X3839Y3015D01*
X3833Y3007D01*
X3831Y2997D01*
Y2859D01*
X3833Y2849D01*
X3839Y2840D01*
X3892Y2787D01*
X3895Y2785D01*
Y1385D01*
X3897Y1375D01*
X3902Y1367D01*
X4017Y1252D01*
X4025Y1246D01*
X4026Y1246D01*
X4037Y1230D01*
X4055Y1218D01*
X4063Y1217D01*
X4067Y1204D01*
X4042Y1180D01*
X4003D01*
X3997Y1191D01*
X4002Y1198D01*
X4006Y1219D01*
X4002Y1241D01*
X3989Y1259D01*
X3971Y1271D01*
X3950Y1275D01*
X3933Y1272D01*
X3841Y1364D01*
Y2130D01*
X3855Y2140D01*
X3867Y2158D01*
X3871Y2179D01*
X3867Y2201D01*
X3855Y2219D01*
X3837Y2231D01*
X3815Y2235D01*
X3794Y2231D01*
X3775Y2219D01*
X3763Y2201D01*
X3759Y2179D01*
X3763Y2158D01*
X3775Y2140D01*
X3790Y2130D01*
Y1354D01*
X3792Y1344D01*
X3797Y1336D01*
X3897Y1236D01*
X3894Y1219D01*
X3898Y1198D01*
X3902Y1191D01*
X3896Y1180D01*
X3631D01*
X3628Y1192D01*
X3631Y1195D01*
X3643Y1213D01*
X3648Y1234D01*
X3643Y1256D01*
X3631Y1274D01*
X3613Y1286D01*
X3592Y1291D01*
X3575Y1287D01*
X3320Y1542D01*
X3312Y1548D01*
X3302Y1549D01*
X3148D01*
X3138Y1564D01*
X3124Y1573D01*
Y1727D01*
X3122Y1737D01*
X3117Y1745D01*
X2914Y1948D01*
X2914Y1948D01*
X2901Y1961D01*
X2893Y1967D01*
X2883Y1969D01*
X2551D01*
X2542Y1983D01*
X2523Y1995D01*
X2502Y1999D01*
X2480Y1995D01*
X2462Y1983D01*
X2450Y1965D01*
X2446Y1943D01*
X2450Y1922D01*
X2462Y1903D01*
X2480Y1891D01*
X2502Y1887D01*
X2523Y1891D01*
X2542Y1903D01*
X2551Y1918D01*
X2872D01*
X2878Y1912D01*
X2878Y1912D01*
X3073Y1717D01*
Y1573D01*
X3059Y1564D01*
X3047Y1545D01*
X3043Y1524D01*
X3047Y1503D01*
X3059Y1484D01*
X3077Y1472D01*
X3099Y1468D01*
X3120Y1472D01*
X3138Y1484D01*
X3148Y1499D01*
X3291D01*
X3539Y1251D01*
X3535Y1234D01*
X3540Y1213D01*
X3552Y1195D01*
X3555Y1192D01*
X3552Y1180D01*
X3390D01*
X3190Y1380D01*
X3193Y1397D01*
X3189Y1418D01*
X3177Y1437D01*
X3158Y1449D01*
X3137Y1453D01*
X3115Y1449D01*
X3097Y1437D01*
X3085Y1418D01*
X3081Y1397D01*
X3085Y1376D01*
X3097Y1357D01*
X3115Y1345D01*
X3137Y1341D01*
X3154Y1344D01*
X3362Y1136D01*
X3370Y1131D01*
X3380Y1129D01*
X4053D01*
X4063Y1131D01*
X4071Y1136D01*
X4160Y1225D01*
X4165Y1233D01*
X4167Y1243D01*
Y1297D01*
X4165Y1307D01*
X4160Y1315D01*
X4122Y1353D01*
X4113Y1359D01*
X4104Y1360D01*
X4095D01*
X4061Y1395D01*
X4065Y1407D01*
X4073Y1409D01*
X4091Y1421D01*
X4100Y1435D01*
X4102D01*
X4112Y1437D01*
X4120Y1442D01*
X4626Y1948D01*
X5740D01*
X5750Y1950D01*
X5758Y1956D01*
X5847Y2045D01*
X6021D01*
X6031Y2030D01*
X6049Y2018D01*
X6071Y2014D01*
X6092Y2018D01*
X6110Y2030D01*
X6122Y2049D01*
X6127Y2070D01*
X6122Y2092D01*
X6110Y2110D01*
X6092Y2122D01*
X6071Y2126D01*
X6049Y2122D01*
X6031Y2110D01*
X6021Y2096D01*
X5837D01*
X5827Y2094D01*
X5819Y2088D01*
X5730Y1999D01*
X4615D01*
X4605Y1997D01*
X4597Y1992D01*
X4104Y1498D01*
X4091Y1500D01*
X4091Y1500D01*
X4073Y1512D01*
X4051Y1517D01*
X4030Y1512D01*
X4023Y1508D01*
X4012Y1514D01*
Y1634D01*
X4299Y1921D01*
X4315Y1918D01*
X4337Y1922D01*
X4355Y1934D01*
X4367Y1952D01*
X4372Y1974D01*
X4367Y1995D01*
X4355Y2013D01*
X4337Y2025D01*
X4315Y2030D01*
X4294Y2025D01*
X4276Y2013D01*
X4264Y1995D01*
X4259Y1974D01*
X4263Y1957D01*
X3968Y1662D01*
X3963Y1654D01*
X3961Y1644D01*
Y1434D01*
X3963Y1424D01*
X3968Y1416D01*
X4051Y1333D01*
X4049Y1317D01*
X4037Y1310D01*
X4032Y1309D01*
X3946Y1395D01*
Y2805D01*
X3944Y2815D01*
X3944Y2816D01*
X3958Y2818D01*
X3967Y2824D01*
X4059D01*
X4700Y2183D01*
X4696Y2167D01*
X4701Y2145D01*
X4713Y2127D01*
X4731Y2115D01*
X4752Y2111D01*
X4774Y2115D01*
X4792Y2127D01*
X4804Y2145D01*
X4808Y2167D01*
X4804Y2188D01*
X4792Y2206D01*
X4774Y2218D01*
X4752Y2223D01*
X4736Y2219D01*
X4087Y2868D01*
X4079Y2873D01*
X4069Y2875D01*
X3992D01*
X3989Y2892D01*
X3977Y2910D01*
X3958Y2922D01*
X3937Y2926D01*
X3916Y2922D01*
X3897Y2910D01*
X3895Y2906D01*
X3882Y2910D01*
Y2987D01*
X3980Y3085D01*
X3986Y3093D01*
X3988Y3103D01*
Y3161D01*
X3990Y3162D01*
X4004Y3159D01*
X4009Y3150D01*
X4044Y3116D01*
X4040Y3102D01*
X4030Y3100D01*
X4012Y3088D01*
X3999Y3069D01*
X3995Y3048D01*
X3999Y3027D01*
X4012Y3008D01*
X4030Y2996D01*
X4051Y2992D01*
X4073Y2996D01*
X4091Y3008D01*
X4101Y3009D01*
X4106Y3005D01*
X4106Y3005D01*
X4206Y2904D01*
X4214Y2898D01*
X4224Y2897D01*
X4814D01*
X4820Y2896D01*
X4829Y2897D01*
X4838Y2903D01*
X4915Y2980D01*
X4921Y2989D01*
X4923Y2998D01*
Y3923D01*
X4937Y3933D01*
X4949Y3951D01*
X4953Y3973D01*
X4949Y3994D01*
X4937Y4012D01*
X4919Y4024D01*
X4897Y4029D01*
D02*
G37*
G36*
X4506Y2736D02*
X4485Y2732D01*
X4466Y2719D01*
X4454Y2701D01*
X4450Y2680D01*
X4454Y2658D01*
X4466Y2640D01*
X4485Y2628D01*
X4506Y2624D01*
X4523Y2627D01*
X5018Y2132D01*
X5026Y2126D01*
X5036Y2125D01*
X5081D01*
X5090Y2110D01*
X5109Y2098D01*
X5130Y2094D01*
X5151Y2098D01*
X5170Y2110D01*
X5182Y2129D01*
X5186Y2150D01*
X5182Y2171D01*
X5170Y2190D01*
X5151Y2202D01*
X5130Y2206D01*
X5109Y2202D01*
X5090Y2190D01*
X5081Y2175D01*
X5046D01*
X4559Y2663D01*
X4562Y2680D01*
X4558Y2701D01*
X4546Y2719D01*
X4527Y2732D01*
X4506Y2736D01*
D02*
G37*
G36*
X2007Y3175D02*
X1985Y3171D01*
X1967Y3159D01*
X1955Y3141D01*
X1951Y3119D01*
X1955Y3098D01*
X1967Y3079D01*
X1981Y3070D01*
Y2294D01*
X1772Y2085D01*
X1755Y2088D01*
X1734Y2084D01*
X1715Y2072D01*
X1703Y2053D01*
X1699Y2032D01*
X1703Y2011D01*
X1715Y1992D01*
X1734Y1980D01*
X1755Y1976D01*
X1777Y1980D01*
X1795Y1992D01*
X1807Y2011D01*
X1811Y2032D01*
X1808Y2049D01*
X2025Y2265D01*
X2030Y2274D01*
X2032Y2283D01*
Y3070D01*
X2046Y3079D01*
X2058Y3098D01*
X2063Y3119D01*
X2058Y3141D01*
X2046Y3159D01*
X2028Y3171D01*
X2007Y3175D01*
D02*
G37*
G36*
X6240Y3196D02*
X6219Y3192D01*
X6200Y3180D01*
X6188Y3161D01*
X6184Y3140D01*
X6188Y3119D01*
X6200Y3100D01*
X6215Y3091D01*
Y1968D01*
X6127Y1880D01*
X6109D01*
X6102Y1895D01*
X6090Y1911D01*
X6073Y1924D01*
X6053Y1932D01*
X6033Y1935D01*
X6012Y1932D01*
X5992Y1924D01*
X5975Y1911D01*
X5963Y1895D01*
X5955Y1875D01*
X5952Y1854D01*
X5955Y1833D01*
X5963Y1814D01*
X5975Y1797D01*
X5992Y1784D01*
X6012Y1776D01*
X6033Y1774D01*
X6053Y1776D01*
X6073Y1784D01*
X6090Y1797D01*
X6102Y1814D01*
X6109Y1829D01*
X6137D01*
X6147Y1831D01*
X6155Y1836D01*
X6258Y1939D01*
X6264Y1947D01*
X6265Y1957D01*
Y3091D01*
X6280Y3100D01*
X6292Y3119D01*
X6296Y3140D01*
X6292Y3161D01*
X6280Y3180D01*
X6261Y3192D01*
X6240Y3196D01*
D02*
G37*
G36*
X888Y1968D02*
X864D01*
Y1867D01*
X1001D01*
X998Y1884D01*
X987Y1911D01*
X969Y1935D01*
X945Y1953D01*
X918Y1964D01*
X888Y1968D01*
D02*
G37*
G36*
X838D02*
X813D01*
X784Y1964D01*
X756Y1953D01*
X733Y1935D01*
X715Y1911D01*
X703Y1884D01*
X701Y1867D01*
X838D01*
Y1968D01*
D02*
G37*
G36*
X1001Y1842D02*
X864D01*
Y1740D01*
X888D01*
X918Y1744D01*
X945Y1756D01*
X969Y1774D01*
X987Y1797D01*
X998Y1825D01*
X1001Y1842D01*
D02*
G37*
G36*
X838D02*
X701D01*
X703Y1825D01*
X715Y1797D01*
X733Y1774D01*
X756Y1756D01*
X784Y1744D01*
X813Y1740D01*
X838D01*
Y1842D01*
D02*
G37*
G36*
X6045Y1694D02*
Y1617D01*
X6122D01*
X6121Y1628D01*
X6111Y1650D01*
X6097Y1669D01*
X6078Y1683D01*
X6056Y1692D01*
X6045Y1694D01*
D02*
G37*
G36*
X6020D02*
X6009Y1692D01*
X5987Y1683D01*
X5968Y1669D01*
X5954Y1650D01*
X5944Y1628D01*
X5943Y1617D01*
X6020D01*
Y1694D01*
D02*
G37*
G36*
X6122Y1591D02*
X6045D01*
Y1515D01*
X6056Y1516D01*
X6078Y1525D01*
X6097Y1540D01*
X6111Y1559D01*
X6121Y1581D01*
X6122Y1591D01*
D02*
G37*
G36*
X6020D02*
X5943D01*
X5944Y1581D01*
X5954Y1559D01*
X5968Y1540D01*
X5987Y1525D01*
X6009Y1516D01*
X6020Y1515D01*
Y1591D01*
D02*
G37*
G36*
X888Y1704D02*
X813D01*
X787Y1700D01*
X762Y1690D01*
X740Y1673D01*
X724Y1652D01*
X714Y1627D01*
X710Y1600D01*
X714Y1573D01*
X724Y1549D01*
X740Y1527D01*
X762Y1511D01*
X787Y1500D01*
X813Y1497D01*
X888D01*
X915Y1500D01*
X940Y1511D01*
X962Y1527D01*
X978Y1549D01*
X988Y1573D01*
X992Y1600D01*
X988Y1627D01*
X978Y1652D01*
X962Y1673D01*
X940Y1690D01*
X915Y1700D01*
X888Y1704D01*
D02*
G37*
G36*
X6200Y466D02*
X6168Y463D01*
X6137Y453D01*
X6108Y438D01*
X6083Y417D01*
X6062Y392D01*
X6047Y363D01*
X6037Y332D01*
X6034Y300D01*
X6037Y268D01*
X6047Y237D01*
X6062Y208D01*
X6083Y183D01*
X6108Y162D01*
X6137Y147D01*
X6168Y137D01*
X6200Y134D01*
X6232Y137D01*
X6263Y147D01*
X6292Y162D01*
X6317Y183D01*
X6338Y208D01*
X6353Y237D01*
X6363Y268D01*
X6366Y300D01*
X6363Y332D01*
X6353Y363D01*
X6338Y392D01*
X6317Y417D01*
X6292Y438D01*
X6263Y453D01*
X6232Y463D01*
X6200Y466D01*
D02*
G37*
G36*
X300D02*
X268Y463D01*
X237Y453D01*
X208Y438D01*
X183Y417D01*
X162Y392D01*
X147Y363D01*
X137Y332D01*
X134Y300D01*
X137Y268D01*
X147Y237D01*
X162Y208D01*
X183Y183D01*
X208Y162D01*
X237Y147D01*
X268Y137D01*
X300Y134D01*
X332Y137D01*
X363Y147D01*
X392Y162D01*
X417Y183D01*
X438Y208D01*
X453Y237D01*
X463Y268D01*
X466Y300D01*
X463Y332D01*
X453Y363D01*
X438Y392D01*
X417Y417D01*
X392Y438D01*
X363Y453D01*
X332Y463D01*
X300Y466D01*
D02*
G37*
%LPD*%
D20*
X6137Y1854D02*
X6240Y1957D01*
Y3140D01*
X5036Y2150D02*
X5130D01*
X4506Y2680D02*
X5036Y2150D01*
X6033Y4343D02*
X6337Y4039D01*
X4940Y4343D02*
X6033D01*
X3937Y2870D02*
X3957Y2850D01*
X4069D01*
X4470Y2972D02*
X4496Y2997D01*
X4224Y2972D02*
X4470D01*
X4027Y3168D02*
X4224Y2972D01*
X4027Y3168D02*
Y3351D01*
X4013Y3365D02*
X4027Y3351D01*
X3986Y1644D02*
X4315Y1974D01*
X4085Y1335D02*
X4104D01*
X3986Y1434D02*
Y1644D01*
Y1434D02*
X4085Y1335D01*
X4051Y1460D02*
X4102D01*
X4615Y1974D01*
X3857Y2859D02*
Y2997D01*
Y2859D02*
X3910Y2805D01*
X3920D02*
X3920Y2805D01*
X3910Y2805D02*
X3920D01*
X3937Y2870D02*
Y2885D01*
X4069Y2850D02*
X4752Y2167D01*
X3857Y2997D02*
X3962Y3103D01*
Y3221D01*
X4051Y3048D02*
X4098D01*
X4124Y3023D02*
X4224Y2922D01*
X4098Y3048D02*
X4124Y3023D01*
X4224Y2922D02*
X4819D01*
X4820Y2921D01*
X5837Y2070D02*
X6071D01*
X5740Y1974D02*
X5837Y2070D01*
X4615Y1974D02*
X5740D01*
X4053Y1154D02*
X4142Y1243D01*
X3137Y1397D02*
X3380Y1154D01*
X3815Y1354D02*
X3950Y1219D01*
X3380Y1154D02*
X4053D01*
X4104Y1335D02*
X4142Y1297D01*
Y1243D02*
Y1297D01*
X4035Y1270D02*
X4077D01*
X3920Y1385D02*
X4035Y1270D01*
X3099Y1524D02*
Y1727D01*
X2896Y1930D02*
X3099Y1727D01*
X2883Y1943D02*
X2896Y1930D01*
X2502Y1943D02*
X2883D01*
X3099Y1524D02*
X3302D01*
X3592Y1234D01*
X3815Y1354D02*
Y2179D01*
X2697Y3523D02*
X3307D01*
X2073Y4148D02*
X2697Y3523D01*
X2007Y2283D02*
Y3119D01*
X1755Y2032D02*
X2007Y2283D01*
X4897Y2998D02*
Y3973D01*
X4820Y2921D02*
X4897Y2998D01*
X3305Y4191D02*
X4963D01*
X3302Y4188D02*
X3305Y4191D01*
X3302Y4039D02*
Y4188D01*
X3920Y1385D02*
Y2805D01*
X6033Y1854D02*
X6137D01*
D22*
X2794Y4039D02*
D03*
D23*
X3048D02*
D03*
X3302D02*
D03*
X3556D02*
D03*
X3810D02*
D03*
X4064D02*
D03*
X4318D02*
D03*
X2794Y4801D02*
D03*
X3048D02*
D03*
X3302D02*
D03*
X3556D02*
D03*
X3810D02*
D03*
X4064D02*
D03*
X4318D02*
D03*
D24*
X6033Y1854D02*
D03*
Y1604D02*
D03*
D25*
X851Y1854D02*
D03*
Y1600D02*
D03*
D26*
X6240Y3140D02*
D03*
X5130Y2150D02*
D03*
X4940Y4343D02*
D03*
X4013Y3365D02*
D03*
X4051Y1460D02*
D03*
X4496Y2997D02*
D03*
X3937Y2870D02*
D03*
X3962Y3221D02*
D03*
X4051Y3048D02*
D03*
X6071Y2070D02*
D03*
X3950Y1219D02*
D03*
X4077Y1270D02*
D03*
X2502Y1943D02*
D03*
X3099Y1524D02*
D03*
X3815Y2179D02*
D03*
X3137Y1397D02*
D03*
X4315Y1974D02*
D03*
X4506Y2680D02*
D03*
X3592Y1234D02*
D03*
X3307Y3523D02*
D03*
X2073Y4148D02*
D03*
X2007Y3119D02*
D03*
X1755Y2032D02*
D03*
X6337Y4039D02*
D03*
X4897Y3973D02*
D03*
X4752Y2167D02*
D03*
X4963Y4191D02*
D03*
D27*
X6200Y6200D02*
D03*
Y300D02*
D03*
X300Y6200D02*
D03*
Y300D02*
D03*
M02*
